<svg viewBox="0 0 12 12" xmlns="http://www.w3.org/2000/svg">
<path id="cross" d="M7.09938 6.00009L11.7719 1.32739C12.076 1.02345 12.076 0.532024 11.7719 0.228084C11.468 -0.0758551 10.9766 -0.0758551 10.6726 0.228084L5.99993 4.90078L1.32737 0.228084C1.02329 -0.0758551 0.532001 -0.0758551 0.228062 0.228084C-0.0760205 0.532024 -0.0760205 1.02345 0.228062 1.32739L4.90062 6.00009L0.228062 10.6728C-0.0760205 10.9767 -0.0760205 11.4681 0.228062 11.7721C0.379533 11.9237 0.578696 11.9999 0.777716 11.9999C0.976736 11.9999 1.17576 11.9237 1.32737 11.7721L5.99993 7.09939L10.6726 11.7721C10.8242 11.9237 11.0233 11.9999 11.2223 11.9999C11.4213 11.9999 11.6203 11.9237 11.7719 11.7721C12.076 11.4681 12.076 10.9767 11.7719 10.6728L7.09938 6.00009Z"/>
</svg>
